<?xml version="1.0" standalone="no"?>
<!DOCTYPE svg PUBLIC "-//W3C//DTD SVG 20010904//EN"
 "http://www.w3.org/TR/2001/REC-SVG-20010904/DTD/svg10.dtd">
<svg version="1.0" xmlns="http://www.w3.org/2000/svg"
 width="700.000000pt" height="700.000000pt" viewBox="0 0 700.000000 700.000000"
 preserveAspectRatio="xMidYMid meet">
<metadata>
Created by potrace 1.14, written by Peter Selinger 2001-2017
</metadata>
<g transform="translate(0.000000,700.000000) scale(0.100000,-0.100000)"
fill="#000000" stroke="none">
<path d="M2845 6975 c-539 -141 -960 -502 -1183 -1015 -11 -25 -26 -62 -33
-83 -9 -26 -18 -37 -29 -34 -8 3 -54 16 -101 30 -627 185 -1302 -188 -1478
-816 -21 -73 -22 -95 -19 -355 4 -275 4 -277 32 -357 26 -74 62 -153 97 -215
163 -287 474 -514 790 -575 113 -22 124 -23 271 -25 l126 -2 -23 -67 c-28 -78
-79 -280 -94 -366 -19 -115 -21 -131 -28 -215 -10 -110 -9 -353 0 -455 42
-453 205 -884 480 -1266 179 -250 418 -483 687 -671 164 -114 437 -259 610
-323 25 -9 54 -21 65 -26 37 -16 209 -68 330 -101 l120 -32 613 -3 613 -4 166
41 c356 88 676 229 979 430 55 37 109 74 120 83 334 270 512 464 696 758 133
212 232 437 298 674 50 178 50 184 50 681 l-1 470 -34 133 c-33 128 -91 297
-135 398 -83 186 -217 414 -325 548 l-32 40 33 101 c18 56 35 121 39 145 3 24
9 60 12 79 8 49 8 223 -1 295 -4 33 -15 94 -26 136 -82 332 -293 602 -605 774
-50 27 -214 91 -257 99 -13 2 -45 9 -73 16 -111 25 -289 27 -420 5 -66 -11
-89 -17 -163 -40 -42 -14 -80 -25 -83 -25 -4 0 -17 28 -29 63 -31 83 -127 268
-177 343 -256 375 -614 627 -1038 730 -96 23 -113 24 -425 23 -308 0 -330 -2
-415 -24z"/>
</g>
</svg>
